<svg xmlns="http://www.w3.org/2000/svg" xmlns:xlink="http://www.w3.org/1999/xlink" width="1080" zoomAndPan="magnify" viewBox="0 0 810 1012.49997" height="1350" preserveAspectRatio="xMidYMid meet" version="1.2"><defs><clipPath id="28bdc84418"><path d="M 0.199219 0 L 809.800781 0 L 809.800781 1012 L 0.199219 1012 Z M 0.199219 0 "/></clipPath><clipPath id="d67a06bf41"><path d="M 1 1 L 586.65625 1 L 586.65625 586 L 1 586 Z M 1 1 "/></clipPath><clipPath id="dc7d174465"><path d="M 23.199219 22 L 565 22 L 565 563.253906 L 23.199219 563.253906 Z M 23.199219 22 "/></clipPath><clipPath id="da2ed49562"><path d="M 23.199219 298 L 189 298 L 189 536 L 23.199219 536 Z M 23.199219 298 "/></clipPath><clipPath id="71be769a6f"><rect x="0" width="587" y="0" height="587"/></clipPath></defs><g id="63bb04d765"><g clip-rule="nonzero" clip-path="url(#28bdc84418)"><path style=" stroke:none;fill-rule:nonzero;fill:#ffffff;fill-opacity:1;" d="M 0.199219 0 L 809.800781 0 L 809.800781 1012 L 0.199219 1012 Z M 0.199219 0 "/><path style=" stroke:none;fill-rule:nonzero;fill:#ffffff;fill-opacity:1;" d="M 0.199219 0 L 809.800781 0 L 809.800781 1012 L 0.199219 1012 Z M 0.199219 0 "/></g><g transform="matrix(1,0,0,1,108,216)"><g clip-path="url(#71be769a6f)"><g clip-rule="nonzero" clip-path="url(#d67a06bf41)"><path style=" stroke:none;fill-rule:nonzero;fill:#1a1617;fill-opacity:1;" d="M 567.164062 23.066406 C 565.765625 21.582031 564.308594 20.164062 562.789062 18.8125 C 561.265625 17.457031 559.691406 16.171875 558.058594 14.957031 C 556.425781 13.742188 554.742188 12.601562 553.007812 11.53125 C 551.277344 10.460938 549.5 9.472656 547.679688 8.558594 C 545.863281 7.644531 544.007812 6.8125 542.113281 6.0625 C 540.222656 5.3125 538.300781 4.644531 536.351562 4.0625 C 534.398438 3.480469 532.425781 2.984375 530.433594 2.574219 C 528.4375 2.164062 526.429688 1.839844 524.410156 1.605469 C 522.386719 1.371094 520.359375 1.226562 518.324219 1.167969 C 516.289062 1.113281 514.253906 1.144531 512.222656 1.265625 C 510.191406 1.386719 508.167969 1.59375 506.152344 1.894531 C 504.140625 2.191406 502.144531 2.578125 500.164062 3.050781 C 498.183594 3.523438 496.226562 4.078125 494.296875 4.722656 C 492.363281 5.367188 490.464844 6.09375 488.597656 6.902344 C 486.730469 7.714844 484.902344 8.605469 483.113281 9.574219 C 481.320312 10.542969 479.578125 11.589844 477.878906 12.710938 C 476.179688 13.835938 474.535156 15.03125 472.941406 16.296875 C 471.347656 17.5625 469.8125 18.894531 468.335938 20.296875 C 466.859375 21.699219 465.445312 23.160156 464.097656 24.683594 C 462.746094 26.210938 461.46875 27.789062 460.257812 29.425781 C 459.046875 31.0625 457.910156 32.75 456.84375 34.484375 C 455.78125 36.222656 454.796875 38 453.890625 39.824219 C 452.980469 41.644531 452.15625 43.503906 451.410156 45.398438 C 450.664062 47.292969 450.003906 49.214844 449.425781 51.167969 C 448.851562 53.121094 448.359375 55.09375 447.957031 57.089844 C 447.550781 59.085938 447.234375 61.09375 447.007812 63.117188 C 446.777344 65.140625 446.640625 67.167969 446.589844 69.203125 C 446.539062 71.238281 446.578125 73.269531 446.703125 75.304688 C 446.832031 77.335938 447.046875 79.355469 447.351562 81.371094 C 447.65625 83.382812 448.046875 85.378906 448.523438 87.355469 C 449.003906 89.335938 449.566406 91.289062 450.21875 93.21875 C 450.867188 95.148438 451.597656 97.046875 452.414062 98.910156 L 270.769531 254.386719 C 270.082031 254.976562 269.367188 255.53125 268.628906 256.050781 C 267.890625 256.574219 267.128906 257.058594 266.347656 257.507812 C 265.5625 257.957031 264.757812 258.371094 263.9375 258.746094 C 263.113281 259.121094 262.273438 259.457031 261.421875 259.753906 C 260.566406 260.050781 259.699219 260.308594 258.824219 260.523438 C 257.945312 260.738281 257.058594 260.914062 256.164062 261.046875 C 255.269531 261.179688 254.371094 261.273438 253.46875 261.320312 C 252.566406 261.371094 251.664062 261.378906 250.757812 261.34375 C 249.855469 261.308594 248.957031 261.230469 248.058594 261.113281 C 247.164062 260.992188 246.273438 260.832031 245.394531 260.628906 C 244.511719 260.429688 243.640625 260.1875 242.78125 259.902344 C 241.925781 259.621094 241.082031 259.296875 240.253906 258.933594 C 239.425781 258.574219 238.613281 258.171875 237.824219 257.734375 C 237.03125 257.296875 236.261719 256.824219 235.515625 256.3125 C 234.769531 255.804688 234.046875 255.261719 233.351562 254.683594 C 232.65625 254.105469 231.988281 253.5 231.347656 252.859375 L 113.746094 135.257812 L 113.921875 135.328125 L 84.507812 105.914062 C 66.058594 87.457031 35.984375 86.089844 16.890625 103.878906 C 15.710938 104.976562 14.589844 106.128906 13.523438 107.34375 C 12.457031 108.554688 11.457031 109.816406 10.519531 111.128906 C 9.578125 112.4375 8.710938 113.792969 7.90625 115.195312 C 7.105469 116.59375 6.375 118.03125 5.71875 119.503906 C 5.058594 120.976562 4.476562 122.476562 3.972656 124.007812 C 3.464844 125.539062 3.035156 127.09375 2.683594 128.667969 C 2.335938 130.242188 2.0625 131.832031 1.871094 133.433594 C 1.683594 135.035156 1.570312 136.640625 1.542969 138.253906 C 1.511719 139.867188 1.5625 141.476562 1.695312 143.082031 C 1.828125 144.691406 2.042969 146.289062 2.335938 147.875 C 2.628906 149.460938 3 151.027344 3.449219 152.578125 C 3.902344 154.125 4.425781 155.648438 5.03125 157.144531 C 5.636719 158.640625 6.3125 160.101562 7.0625 161.53125 C 7.8125 162.957031 8.632812 164.34375 9.523438 165.6875 C 10.414062 167.035156 11.367188 168.332031 12.386719 169.582031 C 13.410156 170.832031 14.488281 172.027344 15.628906 173.167969 C 34.167969 191.703125 55.875 187.847656 69.179688 182.617188 C 70.175781 182.234375 71.199219 181.925781 72.246094 181.699219 C 73.289062 181.472656 74.347656 181.324219 75.414062 181.257812 C 76.484375 181.1875 77.550781 181.203125 78.617188 181.296875 C 79.679688 181.390625 80.734375 181.566406 81.773438 181.820312 C 82.8125 182.074219 83.828125 182.40625 84.816406 182.816406 C 85.804688 183.222656 86.757812 183.703125 87.671875 184.257812 C 88.589844 184.8125 89.457031 185.429688 90.28125 186.117188 C 91.101562 186.800781 91.867188 187.542969 92.574219 188.347656 C 183.109375 289.632812 203.144531 348.3125 207.578125 369.445312 C 207.839844 370.710938 208.28125 371.914062 208.894531 373.050781 C 209.511719 374.191406 210.277344 375.214844 211.191406 376.128906 C 212.105469 377.046875 213.132812 377.808594 214.269531 378.425781 C 215.40625 379.039062 216.609375 379.480469 217.875 379.742188 C 239.007812 384.175781 297.691406 404.210938 398.976562 494.746094 C 399.777344 495.457031 400.519531 496.21875 401.207031 497.042969 C 401.890625 497.863281 402.511719 498.734375 403.0625 499.648438 C 403.617188 500.5625 404.097656 501.515625 404.507812 502.503906 C 404.914062 503.496094 405.246094 504.507812 405.5 505.546875 C 405.753906 506.585938 405.929688 507.640625 406.023438 508.707031 C 406.121094 509.773438 406.132812 510.839844 406.066406 511.90625 C 405.996094 512.972656 405.851562 514.03125 405.621094 515.074219 C 405.394531 516.121094 405.085938 517.144531 404.703125 518.140625 C 399.472656 531.445312 395.617188 553.15625 414.15625 571.691406 C 415.296875 572.832031 416.492188 573.914062 417.742188 574.933594 C 418.988281 575.953125 420.289062 576.910156 421.632812 577.800781 C 422.976562 578.6875 424.363281 579.507812 425.792969 580.261719 C 427.21875 581.011719 428.679688 581.6875 430.175781 582.292969 C 431.671875 582.894531 433.195312 583.421875 434.746094 583.875 C 436.292969 584.324219 437.859375 584.695312 439.445312 584.988281 C 441.03125 585.28125 442.628906 585.496094 444.238281 585.625 C 445.84375 585.757812 447.457031 585.8125 449.066406 585.78125 C 450.679688 585.753906 452.289062 585.640625 453.890625 585.449219 C 455.492188 585.261719 457.078125 584.988281 458.652344 584.636719 C 460.230469 584.289062 461.78125 583.859375 463.3125 583.351562 C 464.84375 582.84375 466.347656 582.261719 467.820312 581.605469 C 469.292969 580.949219 470.726562 580.21875 472.128906 579.414062 C 473.527344 578.613281 474.882812 577.742188 476.195312 576.804688 C 477.507812 575.867188 478.769531 574.863281 479.980469 573.796875 C 481.191406 572.734375 482.34375 571.609375 483.445312 570.429688 C 501.230469 551.328125 499.863281 521.261719 481.410156 502.808594 L 451.988281 473.390625 L 452.058594 473.566406 L 334.457031 355.964844 C 333.816406 355.324219 333.207031 354.65625 332.632812 353.960938 C 332.054688 353.265625 331.511719 352.542969 331 351.796875 C 330.492188 351.050781 330.019531 350.28125 329.582031 349.492188 C 329.144531 348.699219 328.742188 347.890625 328.382812 347.0625 C 328.019531 346.230469 327.695312 345.390625 327.414062 344.53125 C 327.128906 343.671875 326.886719 342.800781 326.683594 341.921875 C 326.484375 341.039062 326.320312 340.148438 326.203125 339.253906 C 326.082031 338.359375 326.007812 337.457031 325.972656 336.554688 C 325.9375 335.652344 325.945312 334.746094 325.992188 333.84375 C 326.042969 332.941406 326.132812 332.042969 326.265625 331.148438 C 326.402344 330.253906 326.574219 329.367188 326.792969 328.492188 C 327.007812 327.613281 327.265625 326.746094 327.5625 325.890625 C 327.859375 325.039062 328.195312 324.199219 328.570312 323.378906 C 328.945312 322.554688 329.355469 321.75 329.808594 320.96875 C 330.257812 320.183594 330.742188 319.421875 331.265625 318.683594 C 331.785156 317.945312 332.339844 317.230469 332.929688 316.542969 L 488.402344 134.898438 C 490.226562 135.699219 492.085938 136.417969 493.972656 137.058594 C 495.859375 137.695312 497.769531 138.253906 499.707031 138.730469 C 501.640625 139.207031 503.59375 139.597656 505.5625 139.90625 C 507.53125 140.214844 509.507812 140.4375 511.496094 140.578125 C 513.484375 140.71875 515.476562 140.769531 517.46875 140.738281 C 519.460938 140.707031 521.445312 140.59375 523.429688 140.390625 C 525.414062 140.191406 527.382812 139.902344 529.339844 139.535156 C 531.296875 139.164062 533.238281 138.710938 535.15625 138.171875 C 537.074219 137.636719 538.96875 137.019531 540.835938 136.320312 C 542.703125 135.625 544.535156 134.847656 546.335938 133.992188 C 548.132812 133.136719 549.894531 132.203125 551.613281 131.199219 C 553.335938 130.191406 555.007812 129.113281 556.636719 127.964844 C 558.265625 126.816406 559.839844 125.597656 561.363281 124.3125 C 562.886719 123.03125 564.351562 121.683594 565.761719 120.273438 C 567.167969 118.863281 568.515625 117.394531 569.796875 115.871094 C 571.078125 114.34375 572.292969 112.765625 573.441406 111.136719 C 574.589844 109.507812 575.664062 107.832031 576.667969 106.113281 C 577.671875 104.390625 578.601562 102.628906 579.453125 100.828125 C 580.308594 99.027344 581.082031 97.191406 581.777344 95.324219 C 582.472656 93.457031 583.089844 91.566406 583.621094 89.644531 C 584.15625 87.726562 584.605469 85.785156 584.976562 83.828125 C 585.34375 81.867188 585.625 79.898438 585.824219 77.914062 C 586.023438 75.933594 586.136719 73.945312 586.164062 71.953125 C 586.195312 69.960938 586.136719 67.96875 585.996094 65.980469 C 585.855469 63.992188 585.628906 62.015625 585.316406 60.046875 C 585.003906 58.078125 584.609375 56.128906 584.132812 54.195312 C 583.652344 52.257812 583.09375 50.347656 582.453125 48.460938 C 581.808594 46.574219 581.089844 44.71875 580.289062 42.894531 C 579.488281 41.070312 578.609375 39.28125 577.65625 37.535156 C 576.703125 35.785156 575.675781 34.078125 574.574219 32.417969 C 573.476562 30.753906 572.304688 29.144531 571.066406 27.582031 C 569.828125 26.019531 568.527344 24.515625 567.160156 23.066406 Z M 203.75 284.75 C 203.4375 285.0625 203.09375 285.335938 202.714844 285.570312 C 202.339844 285.804688 201.941406 285.996094 201.523438 286.144531 C 201.105469 286.289062 200.675781 286.386719 200.234375 286.4375 C 199.792969 286.488281 199.351562 286.488281 198.914062 286.4375 C 198.472656 286.386719 198.042969 286.289062 197.621094 286.144531 C 197.203125 286 196.804688 285.808594 196.429688 285.574219 C 196.054688 285.339844 195.707031 285.066406 195.394531 284.753906 C 195.078125 284.441406 194.804688 284.097656 194.566406 283.722656 C 190.25 276.96875 186.554688 271.59375 184.167969 268.203125 C 183.765625 267.632812 183.472656 267.007812 183.292969 266.335938 C 183.109375 265.660156 183.050781 264.976562 183.113281 264.28125 C 183.171875 263.585938 183.351562 262.925781 183.648438 262.292969 C 183.941406 261.660156 184.339844 261.097656 184.832031 260.609375 L 190.609375 254.832031 C 190.886719 254.554688 191.183594 254.308594 191.507812 254.09375 C 191.832031 253.878906 192.175781 253.695312 192.535156 253.546875 C 192.894531 253.398438 193.265625 253.285156 193.644531 253.210938 C 194.027344 253.132812 194.414062 253.09375 194.800781 253.09375 C 195.191406 253.09375 195.578125 253.132812 195.957031 253.210938 C 196.339844 253.285156 196.710938 253.398438 197.070312 253.546875 C 197.429688 253.695312 197.769531 253.878906 198.09375 254.09375 C 198.417969 254.308594 198.71875 254.554688 198.992188 254.832031 L 212.136719 267.976562 C 212.414062 268.25 212.660156 268.546875 212.875 268.871094 C 213.089844 269.195312 213.273438 269.535156 213.425781 269.894531 C 213.574219 270.253906 213.6875 270.625 213.761719 271.003906 C 213.839844 271.386719 213.878906 271.769531 213.878906 272.160156 C 213.878906 272.550781 213.839844 272.933594 213.765625 273.316406 C 213.691406 273.695312 213.578125 274.066406 213.429688 274.425781 C 213.28125 274.785156 213.097656 275.128906 212.882812 275.453125 C 212.667969 275.773438 212.421875 276.074219 212.144531 276.347656 Z M 261.367188 325.945312 L 237.289062 350.027344 C 237.105469 350.210938 236.910156 350.382812 236.707031 350.539062 C 236.5 350.699219 236.289062 350.84375 236.0625 350.976562 C 235.839844 351.109375 235.609375 351.226562 235.371094 351.328125 C 235.132812 351.433594 234.890625 351.519531 234.640625 351.59375 C 234.394531 351.664062 234.140625 351.71875 233.882812 351.761719 C 233.628906 351.800781 233.371094 351.824219 233.113281 351.832031 C 232.851562 351.839844 232.59375 351.832031 232.335938 351.808594 C 232.078125 351.78125 231.824219 351.742188 231.570312 351.683594 C 231.316406 351.628906 231.066406 351.554688 230.824219 351.464844 C 230.582031 351.378906 230.34375 351.273438 230.113281 351.15625 C 229.882812 351.039062 229.660156 350.90625 229.445312 350.757812 C 229.230469 350.613281 229.027344 350.453125 228.835938 350.28125 C 228.640625 350.109375 228.457031 349.925781 228.289062 349.730469 C 228.117188 349.535156 227.960938 349.328125 227.816406 349.113281 C 227.671875 348.898438 227.539062 348.675781 227.421875 348.445312 C 227.304688 348.210938 227.203125 347.972656 227.117188 347.730469 C 222.644531 335.292969 217.257812 323.265625 210.957031 311.648438 C 210.644531 311.0625 210.429688 310.445312 210.3125 309.792969 C 210.199219 309.140625 210.1875 308.484375 210.285156 307.828125 C 210.378906 307.171875 210.578125 306.546875 210.875 305.953125 C 211.171875 305.359375 211.554688 304.828125 212.023438 304.359375 L 225.898438 290.480469 C 226.183594 290.195312 226.496094 289.9375 226.835938 289.714844 C 227.171875 289.488281 227.527344 289.300781 227.902344 289.144531 C 228.277344 288.988281 228.660156 288.871094 229.058594 288.792969 C 229.457031 288.714844 229.859375 288.675781 230.261719 288.675781 C 230.667969 288.675781 231.070312 288.714844 231.46875 288.792969 C 231.863281 288.871094 232.25 288.988281 232.625 289.144531 C 233 289.300781 233.355469 289.488281 233.691406 289.714844 C 234.03125 289.9375 234.339844 290.195312 234.628906 290.480469 L 261.367188 317.214844 C 261.652344 317.5 261.910156 317.8125 262.132812 318.152344 C 262.359375 318.488281 262.550781 318.84375 262.703125 319.21875 C 262.859375 319.59375 262.976562 319.976562 263.054688 320.375 C 263.132812 320.773438 263.171875 321.175781 263.171875 321.578125 C 263.171875 321.984375 263.132812 322.386719 263.054688 322.785156 C 262.976562 323.179688 262.859375 323.566406 262.703125 323.941406 C 262.550781 324.316406 262.359375 324.671875 262.132812 325.007812 C 261.910156 325.34375 261.652344 325.65625 261.367188 325.945312 Z M 261.367188 325.945312 "/></g><path style=" stroke:none;fill-rule:nonzero;fill:#1a1617;fill-opacity:1;" d="M 166.046875 576.796875 L 285.65625 457.1875 C 285.910156 456.933594 286.152344 456.664062 286.378906 456.378906 C 286.605469 456.097656 286.8125 455.800781 287.007812 455.496094 C 287.199219 455.1875 287.375 454.871094 287.53125 454.542969 C 287.691406 454.21875 287.828125 453.882812 287.949219 453.542969 C 288.070312 453.199219 288.171875 452.851562 288.253906 452.5 C 288.332031 452.144531 288.394531 451.789062 288.4375 451.429688 C 288.476562 451.070312 288.5 450.707031 288.5 450.347656 C 288.503906 449.984375 288.484375 449.621094 288.445312 449.261719 C 288.40625 448.902344 288.34375 448.542969 288.265625 448.191406 C 288.1875 447.835938 288.089844 447.488281 287.972656 447.144531 C 287.851562 446.804688 287.714844 446.46875 287.558594 446.140625 C 287.40625 445.8125 287.230469 445.496094 287.039062 445.1875 C 286.851562 444.878906 286.640625 444.582031 286.417969 444.296875 C 286.195312 444.011719 285.953125 443.742188 285.699219 443.484375 C 285.445312 443.226562 285.175781 442.984375 284.894531 442.753906 C 284.613281 442.527344 284.320312 442.316406 284.015625 442.121094 C 244.347656 416.835938 220.664062 409.875 211.933594 408.042969 L 211.324219 407.914062 C 209.871094 407.609375 208.398438 407.484375 206.914062 407.546875 C 205.425781 407.605469 203.972656 407.847656 202.546875 408.269531 C 201.121094 408.695312 199.765625 409.285156 198.488281 410.046875 C 197.210938 410.808594 196.046875 411.714844 194.996094 412.765625 L 37.066406 570.695312 C 36.554688 571.207031 36.132812 571.78125 35.792969 572.417969 C 35.453125 573.058594 35.214844 573.730469 35.074219 574.4375 C 34.933594 575.148438 34.898438 575.859375 34.96875 576.578125 C 35.039062 577.296875 35.214844 577.992188 35.492188 578.660156 C 35.765625 579.324219 36.132812 579.9375 36.59375 580.496094 C 37.050781 581.054688 37.578125 581.535156 38.179688 581.9375 C 38.78125 582.339844 39.425781 582.644531 40.117188 582.855469 C 40.808594 583.066406 41.511719 583.175781 42.234375 583.175781 L 150.65625 583.175781 C 152.085938 583.175781 153.5 583.035156 154.902344 582.757812 C 156.304688 582.476562 157.664062 582.0625 158.984375 581.515625 C 160.304688 580.96875 161.558594 580.300781 162.746094 579.503906 C 163.933594 578.710938 165.035156 577.808594 166.046875 576.796875 Z M 166.046875 576.796875 "/><path style=" stroke:none;fill-rule:nonzero;fill:#1a1617;fill-opacity:1;" d="M 1.523438 439.28125 L 1.523438 547.691406 C 1.527344 548.414062 1.632812 549.121094 1.84375 549.8125 C 2.054688 550.503906 2.359375 551.148438 2.761719 551.75 C 3.164062 552.347656 3.644531 552.878906 4.203125 553.335938 C 4.761719 553.792969 5.375 554.160156 6.042969 554.4375 C 6.710938 554.714844 7.402344 554.886719 8.121094 554.957031 C 8.839844 555.03125 9.554688 554.996094 10.261719 554.855469 C 10.972656 554.714844 11.644531 554.476562 12.28125 554.136719 C 12.917969 553.796875 13.492188 553.371094 14.003906 552.863281 L 174.546875 392.320312 C 175.601562 391.265625 176.507812 390.101562 177.269531 388.820312 C 178.03125 387.539062 178.625 386.1875 179.046875 384.757812 C 179.46875 383.332031 179.710938 381.875 179.769531 380.386719 C 179.828125 378.898438 179.703125 377.425781 179.394531 375.96875 L 179.265625 375.351562 C 177.425781 366.59375 170.449219 342.910156 145.191406 303.289062 C 144.996094 302.984375 144.785156 302.691406 144.558594 302.410156 C 144.332031 302.128906 144.089844 301.859375 143.832031 301.605469 C 143.574219 301.351562 143.304688 301.113281 143.019531 300.886719 C 142.738281 300.664062 142.441406 300.457031 142.132812 300.265625 C 141.824219 300.074219 141.507812 299.902344 141.183594 299.746094 C 140.855469 299.589844 140.519531 299.453125 140.179688 299.332031 C 139.835938 299.214844 139.488281 299.117188 139.136719 299.039062 C 138.785156 298.957031 138.425781 298.898438 138.066406 298.859375 C 137.707031 298.820312 137.347656 298.800781 136.984375 298.800781 C 136.621094 298.800781 136.261719 298.824219 135.902344 298.863281 C 135.542969 298.90625 135.1875 298.964844 134.835938 299.046875 C 134.480469 299.128906 134.132812 299.230469 133.792969 299.347656 C 133.453125 299.46875 133.117188 299.605469 132.792969 299.765625 C 132.464844 299.921875 132.148438 300.097656 131.84375 300.289062 C 131.535156 300.480469 131.242188 300.691406 130.957031 300.917969 C 130.675781 301.140625 130.40625 301.382812 130.148438 301.636719 L 7.90625 423.882812 C 6.894531 424.894531 5.992188 425.996094 5.199219 427.183594 C 4.402344 428.371094 3.730469 429.625 3.183594 430.945312 C 2.636719 432.269531 2.222656 433.628906 1.945312 435.03125 C 1.664062 436.433594 1.523438 437.851562 1.523438 439.28125 Z M 1.523438 439.28125 "/><g clip-rule="nonzero" clip-path="url(#dc7d174465)"><path style=" stroke:none;fill-rule:nonzero;fill:#4b494a;fill-opacity:1;" d="M 546.867188 43.101562 C 545.578125 41.734375 544.226562 40.421875 542.820312 39.171875 C 541.414062 37.917969 539.957031 36.730469 538.449219 35.605469 C 536.9375 34.480469 535.378906 33.425781 533.777344 32.4375 C 532.175781 31.449219 530.53125 30.53125 528.851562 29.6875 C 527.167969 28.84375 525.449219 28.074219 523.699219 27.378906 C 521.949219 26.683594 520.171875 26.066406 518.371094 25.527344 C 516.566406 24.988281 514.742188 24.53125 512.898438 24.152344 C 511.054688 23.769531 509.195312 23.472656 507.324219 23.257812 C 505.457031 23.039062 503.578125 22.90625 501.695312 22.851562 C 499.816406 22.800781 497.933594 22.828125 496.054688 22.941406 C 494.175781 23.050781 492.304688 23.246094 490.441406 23.523438 C 488.578125 23.796875 486.730469 24.152344 484.898438 24.589844 C 483.070312 25.027344 481.261719 25.542969 479.472656 26.140625 C 477.6875 26.734375 475.929688 27.40625 474.203125 28.15625 C 472.476562 28.90625 470.785156 29.730469 469.128906 30.625 C 467.472656 31.523438 465.859375 32.492188 464.289062 33.527344 C 462.71875 34.566406 461.195312 35.671875 459.722656 36.84375 C 458.25 38.015625 456.828125 39.246094 455.460938 40.542969 C 454.097656 41.839844 452.789062 43.191406 451.542969 44.601562 C 450.292969 46.011719 449.109375 47.472656 447.992188 48.988281 C 446.871094 50.5 445.820312 52.0625 444.835938 53.667969 C 443.851562 55.273438 442.941406 56.917969 442.101562 58.601562 C 441.261719 60.289062 440.496094 62.007812 439.808594 63.757812 C 439.117188 65.511719 438.507812 67.289062 437.972656 69.097656 C 437.441406 70.902344 436.988281 72.726562 436.613281 74.574219 C 436.238281 76.417969 435.949219 78.277344 435.734375 80.148438 C 435.523438 82.019531 435.394531 83.894531 435.347656 85.777344 C 435.300781 87.660156 435.335938 89.539062 435.453125 91.417969 C 435.574219 93.296875 435.773438 95.167969 436.054688 97.03125 C 436.335938 98.890625 436.695312 100.738281 437.140625 102.566406 C 437.582031 104.398438 438.105469 106.207031 438.703125 107.988281 C 439.304688 109.773438 439.984375 111.527344 440.738281 113.253906 L 272.730469 257.054688 C 272.097656 257.597656 271.4375 258.113281 270.753906 258.59375 C 270.070312 259.074219 269.367188 259.523438 268.640625 259.941406 C 267.914062 260.359375 267.171875 260.738281 266.410156 261.085938 C 265.652344 261.433594 264.875 261.746094 264.085938 262.019531 C 263.296875 262.292969 262.496094 262.53125 261.683594 262.730469 C 260.871094 262.929688 260.050781 263.09375 259.222656 263.214844 C 258.398438 263.339844 257.566406 263.421875 256.730469 263.46875 C 255.894531 263.515625 255.058594 263.519531 254.226562 263.488281 C 253.390625 263.457031 252.558594 263.386719 251.726562 263.273438 C 250.898438 263.164062 250.078125 263.015625 249.261719 262.828125 C 248.445312 262.644531 247.640625 262.417969 246.847656 262.15625 C 246.054688 261.894531 245.273438 261.59375 244.507812 261.261719 C 243.742188 260.925781 242.992188 260.554688 242.261719 260.152344 C 241.527344 259.746094 240.816406 259.308594 240.125 258.835938 C 239.4375 258.367188 238.769531 257.863281 238.125 257.328125 C 237.480469 256.796875 236.863281 256.234375 236.273438 255.640625 L 127.5 146.871094 L 127.664062 146.9375 L 100.457031 119.730469 C 83.394531 102.660156 55.578125 101.394531 37.921875 117.847656 C 36.828125 118.863281 35.789062 119.929688 34.804688 121.050781 C 33.820312 122.171875 32.890625 123.339844 32.023438 124.550781 C 31.15625 125.765625 30.351562 127.019531 29.609375 128.3125 C 28.867188 129.609375 28.191406 130.9375 27.585938 132.300781 C 26.976562 133.660156 26.4375 135.050781 25.96875 136.46875 C 25.5 137.882812 25.105469 139.320312 24.78125 140.777344 C 24.457031 142.230469 24.203125 143.703125 24.027344 145.183594 C 23.851562 146.664062 23.75 148.152344 23.722656 149.640625 C 23.695312 151.132812 23.742188 152.621094 23.867188 154.109375 C 23.988281 155.597656 24.183594 157.074219 24.457031 158.539062 C 24.726562 160.007812 25.070312 161.457031 25.488281 162.890625 C 25.902344 164.324219 26.390625 165.730469 26.949219 167.113281 C 27.507812 168.496094 28.132812 169.851562 28.828125 171.171875 C 29.523438 172.492188 30.28125 173.773438 31.105469 175.015625 C 31.925781 176.261719 32.808594 177.460938 33.753906 178.617188 C 34.699219 179.773438 35.695312 180.878906 36.75 181.933594 C 53.898438 199.078125 73.976562 195.511719 86.28125 190.675781 C 87.203125 190.320312 88.148438 190.035156 89.117188 189.824219 C 90.082031 189.613281 91.058594 189.476562 92.046875 189.414062 C 93.035156 189.351562 94.023438 189.367188 95.007812 189.453125 C 95.996094 189.539062 96.96875 189.703125 97.929688 189.9375 C 98.890625 190.171875 99.828125 190.480469 100.742188 190.855469 C 101.65625 191.234375 102.539062 191.679688 103.386719 192.191406 C 104.234375 192.703125 105.035156 193.277344 105.796875 193.910156 C 106.554688 194.542969 107.265625 195.230469 107.917969 195.972656 C 191.65625 289.652344 210.1875 343.925781 214.285156 363.472656 C 214.53125 364.644531 214.9375 365.757812 215.503906 366.808594 C 216.074219 367.859375 216.78125 368.808594 217.628906 369.65625 C 218.472656 370.5 219.421875 371.210938 220.476562 371.777344 C 221.527344 372.347656 222.636719 372.753906 223.808594 372.996094 C 243.355469 377.097656 297.632812 395.628906 391.308594 479.363281 C 392.050781 480.019531 392.738281 480.726562 393.375 481.488281 C 394.007812 482.25 394.582031 483.050781 395.09375 483.898438 C 395.605469 484.746094 396.050781 485.625 396.425781 486.542969 C 396.804688 487.457031 397.113281 488.394531 397.347656 489.355469 C 397.582031 490.316406 397.742188 491.289062 397.832031 492.277344 C 397.917969 493.261719 397.929688 494.25 397.867188 495.234375 C 397.804688 496.222656 397.667969 497.199219 397.457031 498.167969 C 397.246094 499.132812 396.964844 500.078125 396.609375 501.003906 C 391.773438 513.308594 388.207031 533.386719 405.351562 550.53125 C 406.40625 551.585938 407.511719 552.585938 408.667969 553.53125 C 409.824219 554.472656 411.023438 555.355469 412.265625 556.179688 C 413.511719 557.003906 414.792969 557.761719 416.113281 558.457031 C 417.433594 559.152344 418.785156 559.777344 420.171875 560.335938 C 421.554688 560.894531 422.960938 561.382812 424.394531 561.796875 C 425.828125 562.214844 427.277344 562.558594 428.742188 562.832031 C 430.210938 563.101562 431.6875 563.296875 433.175781 563.421875 C 434.660156 563.542969 436.152344 563.589844 437.640625 563.5625 C 439.132812 563.535156 440.621094 563.433594 442.101562 563.257812 C 443.582031 563.082031 445.050781 562.832031 446.507812 562.507812 C 447.964844 562.183594 449.402344 561.785156 450.816406 561.316406 C 452.234375 560.847656 453.621094 560.308594 454.984375 559.699219 C 456.347656 559.09375 457.675781 558.417969 458.96875 557.675781 C 460.265625 556.933594 461.519531 556.128906 462.730469 555.261719 C 463.945312 554.390625 465.113281 553.464844 466.230469 552.480469 C 467.351562 551.496094 468.421875 550.457031 469.4375 549.363281 C 485.886719 531.699219 484.625 503.890625 467.554688 486.820312 L 440.34375 459.613281 L 440.410156 459.777344 L 331.636719 351.003906 C 331.046875 350.414062 330.484375 349.796875 329.949219 349.152344 C 329.414062 348.507812 328.914062 347.839844 328.441406 347.148438 C 327.96875 346.460938 327.53125 345.75 327.128906 345.015625 C 326.722656 344.285156 326.351562 343.535156 326.019531 342.769531 C 325.683594 342.003906 325.382812 341.222656 325.121094 340.429688 C 324.859375 339.632812 324.636719 338.828125 324.449219 338.015625 C 324.261719 337.199219 324.113281 336.378906 324.003906 335.546875 C 323.894531 334.71875 323.820312 333.886719 323.789062 333.050781 C 323.757812 332.214844 323.765625 331.378906 323.808594 330.546875 C 323.855469 329.710938 323.941406 328.878906 324.0625 328.050781 C 324.1875 327.226562 324.347656 326.40625 324.546875 325.59375 C 324.746094 324.78125 324.984375 323.980469 325.257812 323.191406 C 325.535156 322.402344 325.84375 321.625 326.191406 320.863281 C 326.539062 320.105469 326.921875 319.359375 327.335938 318.636719 C 327.753906 317.910156 328.203125 317.207031 328.683594 316.523438 C 329.167969 315.839844 329.679688 315.179688 330.222656 314.542969 L 474.023438 146.539062 C 475.710938 147.277344 477.429688 147.945312 479.175781 148.535156 C 480.917969 149.125 482.6875 149.644531 484.476562 150.082031 C 486.265625 150.523438 488.074219 150.886719 489.894531 151.171875 C 491.714844 151.457031 493.542969 151.664062 495.382812 151.792969 C 497.222656 151.921875 499.0625 151.972656 500.90625 151.941406 C 502.746094 151.914062 504.585938 151.804688 506.417969 151.617188 C 508.253906 151.433594 510.074219 151.167969 511.886719 150.824219 C 513.699219 150.484375 515.492188 150.0625 517.265625 149.566406 C 519.042969 149.070312 520.792969 148.5 522.519531 147.855469 C 524.246094 147.210938 525.941406 146.492188 527.605469 145.699219 C 529.269531 144.910156 530.898438 144.046875 532.488281 143.117188 C 534.078125 142.1875 535.628906 141.191406 537.132812 140.125 C 538.636719 139.0625 540.09375 137.9375 541.503906 136.75 C 542.914062 135.5625 544.269531 134.316406 545.570312 133.011719 C 546.875 131.707031 548.117188 130.351562 549.304688 128.9375 C 550.492188 127.527344 551.613281 126.070312 552.675781 124.5625 C 553.738281 123.054688 554.730469 121.507812 555.660156 119.914062 C 556.589844 118.320312 557.449219 116.691406 558.238281 115.027344 C 559.027344 113.363281 559.742188 111.664062 560.386719 109.9375 C 561.03125 108.210938 561.597656 106.460938 562.09375 104.683594 C 562.585938 102.90625 563.003906 101.113281 563.34375 99.304688 C 563.683594 97.492188 563.945312 95.667969 564.128906 93.835938 C 564.3125 92 564.417969 90.164062 564.445312 88.320312 C 564.472656 86.476562 564.417969 84.636719 564.289062 82.796875 C 564.15625 80.960938 563.949219 79.128906 563.660156 77.308594 C 563.371094 75.488281 563.007812 73.683594 562.5625 71.894531 C 562.121094 70.105469 561.605469 68.339844 561.011719 66.59375 C 560.417969 64.847656 559.75 63.132812 559.007812 61.445312 C 558.265625 59.757812 557.457031 58.105469 556.574219 56.484375 C 555.691406 54.867188 554.742188 53.289062 553.722656 51.753906 C 552.707031 50.214844 551.625 48.726562 550.480469 47.28125 C 549.335938 45.835938 548.128906 44.445312 546.867188 43.101562 Z M 210.746094 285.136719 C 210.457031 285.425781 210.136719 285.679688 209.789062 285.898438 C 209.441406 286.113281 209.074219 286.292969 208.6875 286.425781 C 208.300781 286.5625 207.902344 286.652344 207.496094 286.699219 C 207.085938 286.742188 206.679688 286.742188 206.273438 286.699219 C 205.863281 286.652344 205.464844 286.5625 205.078125 286.429688 C 204.691406 286.292969 204.324219 286.117188 203.976562 285.898438 C 203.628906 285.683594 203.308594 285.429688 203.015625 285.140625 C 202.726562 284.851562 202.472656 284.53125 202.25 284.1875 C 198.257812 277.941406 194.84375 272.96875 192.632812 269.832031 C 192.261719 269.304688 191.992188 268.730469 191.824219 268.105469 C 191.65625 267.484375 191.601562 266.851562 191.65625 266.207031 C 191.714844 265.566406 191.878906 264.949219 192.152344 264.367188 C 192.425781 263.78125 192.792969 263.261719 193.25 262.808594 L 198.59375 257.464844 C 198.847656 257.210938 199.125 256.984375 199.425781 256.785156 C 199.722656 256.582031 200.039062 256.414062 200.371094 256.277344 C 200.703125 256.140625 201.046875 256.035156 201.398438 255.964844 C 201.753906 255.894531 202.109375 255.859375 202.46875 255.859375 C 202.828125 255.859375 203.1875 255.894531 203.539062 255.964844 C 203.890625 256.035156 204.234375 256.140625 204.566406 256.277344 C 204.898438 256.414062 205.214844 256.582031 205.515625 256.785156 C 205.816406 256.984375 206.089844 257.210938 206.347656 257.464844 L 218.503906 269.621094 C 218.757812 269.875 218.984375 270.152344 219.1875 270.453125 C 219.386719 270.75 219.554688 271.066406 219.695312 271.398438 C 219.832031 271.730469 219.9375 272.070312 220.007812 272.425781 C 220.078125 272.777344 220.113281 273.132812 220.113281 273.492188 C 220.113281 273.851562 220.078125 274.210938 220.007812 274.5625 C 219.9375 274.914062 219.835938 275.257812 219.699219 275.589844 C 219.5625 275.921875 219.390625 276.238281 219.191406 276.539062 C 218.992188 276.835938 218.765625 277.113281 218.511719 277.367188 Z M 264.035156 323.238281 L 241.765625 345.511719 C 241.597656 345.683594 241.417969 345.839844 241.226562 345.988281 C 241.039062 346.132812 240.839844 346.269531 240.632812 346.390625 C 240.425781 346.511719 240.214844 346.621094 239.992188 346.71875 C 239.773438 346.8125 239.546875 346.894531 239.316406 346.960938 C 239.085938 347.027344 238.855469 347.078125 238.617188 347.117188 C 238.378906 347.152344 238.140625 347.175781 237.902344 347.183594 C 237.664062 347.191406 237.421875 347.183594 237.183594 347.160156 C 236.945312 347.136719 236.710938 347.097656 236.476562 347.046875 C 236.242188 346.992188 236.011719 346.925781 235.789062 346.84375 C 235.5625 346.761719 235.34375 346.667969 235.128906 346.554688 C 234.914062 346.445312 234.710938 346.324219 234.511719 346.1875 C 234.316406 346.054688 234.125 345.90625 233.945312 345.746094 C 233.765625 345.589844 233.597656 345.417969 233.441406 345.238281 C 233.285156 345.058594 233.136719 344.867188 233.003906 344.667969 C 232.871094 344.46875 232.75 344.261719 232.640625 344.046875 C 232.535156 343.835938 232.4375 343.613281 232.359375 343.386719 C 228.222656 331.886719 223.238281 320.761719 217.410156 310.015625 C 217.121094 309.476562 216.921875 308.902344 216.816406 308.300781 C 216.710938 307.695312 216.699219 307.089844 216.789062 306.480469 C 216.878906 305.875 217.058594 305.296875 217.335938 304.75 C 217.609375 304.199219 217.964844 303.707031 218.398438 303.273438 L 231.230469 290.4375 C 231.496094 290.171875 231.785156 289.9375 232.097656 289.730469 C 232.410156 289.519531 232.738281 289.34375 233.082031 289.203125 C 233.429688 289.058594 233.785156 288.949219 234.15625 288.878906 C 234.523438 288.804688 234.894531 288.765625 235.269531 288.765625 C 235.644531 288.765625 236.015625 288.804688 236.382812 288.878906 C 236.75 288.949219 237.105469 289.058594 237.453125 289.203125 C 237.800781 289.34375 238.128906 289.519531 238.441406 289.730469 C 238.75 289.9375 239.039062 290.171875 239.304688 290.4375 L 264.035156 315.164062 C 264.300781 315.429688 264.539062 315.71875 264.746094 316.03125 C 264.953125 316.339844 265.128906 316.671875 265.273438 317.015625 C 265.417969 317.363281 265.523438 317.71875 265.597656 318.085938 C 265.671875 318.457031 265.707031 318.828125 265.707031 319.203125 C 265.707031 319.578125 265.671875 319.949219 265.597656 320.316406 C 265.523438 320.683594 265.417969 321.039062 265.273438 321.386719 C 265.128906 321.730469 264.953125 322.0625 264.746094 322.375 C 264.539062 322.683594 264.300781 322.972656 264.035156 323.238281 Z M 264.035156 323.238281 "/></g><path style=" stroke:none;fill-rule:nonzero;fill:#4b494a;fill-opacity:1;" d="M 175.871094 555.253906 L 286.5 444.628906 C 286.738281 444.390625 286.960938 444.140625 287.167969 443.878906 C 287.378906 443.617188 287.570312 443.34375 287.75 443.058594 C 287.929688 442.777344 288.089844 442.484375 288.238281 442.183594 C 288.382812 441.878906 288.511719 441.570312 288.621094 441.253906 C 288.734375 440.9375 288.828125 440.617188 288.902344 440.289062 C 288.976562 439.964844 289.035156 439.632812 289.074219 439.300781 C 289.113281 438.96875 289.132812 438.632812 289.132812 438.296875 C 289.132812 437.964844 289.117188 437.628906 289.078125 437.296875 C 289.042969 436.960938 288.988281 436.632812 288.914062 436.304688 C 288.84375 435.976562 288.75 435.65625 288.640625 435.339844 C 288.53125 435.023438 288.40625 434.710938 288.261719 434.410156 C 288.117188 434.105469 287.957031 433.8125 287.78125 433.527344 C 287.605469 433.242188 287.414062 432.96875 287.207031 432.703125 C 287 432.441406 286.777344 432.191406 286.542969 431.953125 C 286.304688 431.710938 286.058594 431.488281 285.796875 431.277344 C 285.539062 431.066406 285.265625 430.871094 284.984375 430.691406 C 248.296875 407.304688 226.386719 400.867188 218.3125 399.171875 L 217.753906 399.054688 C 216.40625 398.769531 215.046875 398.65625 213.671875 398.710938 C 212.296875 398.769531 210.949219 398.992188 209.632812 399.382812 C 208.3125 399.773438 207.0625 400.324219 205.878906 401.027344 C 204.699219 401.730469 203.621094 402.570312 202.648438 403.542969 L 56.578125 549.609375 C 56.109375 550.082031 55.714844 550.613281 55.402344 551.203125 C 55.085938 551.792969 54.863281 552.417969 54.734375 553.074219 C 54.605469 553.726562 54.574219 554.386719 54.640625 555.050781 C 54.707031 555.71875 54.867188 556.359375 55.121094 556.976562 C 55.378906 557.59375 55.71875 558.160156 56.140625 558.675781 C 56.5625 559.191406 57.054688 559.636719 57.609375 560.007812 C 58.164062 560.378906 58.761719 560.664062 59.398438 560.859375 C 60.039062 561.054688 60.691406 561.152344 61.359375 561.152344 L 161.640625 561.152344 C 162.960938 561.152344 164.269531 561.023438 165.566406 560.765625 C 166.863281 560.507812 168.121094 560.125 169.34375 559.621094 C 170.5625 559.113281 171.722656 558.492188 172.820312 557.757812 C 173.921875 557.023438 174.9375 556.191406 175.871094 555.253906 Z M 175.871094 555.253906 "/><g clip-rule="nonzero" clip-path="url(#da2ed49562)"><path style=" stroke:none;fill-rule:nonzero;fill:#4b494a;fill-opacity:1;" d="M 23.707031 428.0625 L 23.707031 528.335938 C 23.707031 529.003906 23.804688 529.65625 24 530.296875 C 24.195312 530.933594 24.480469 531.53125 24.851562 532.085938 C 25.222656 532.640625 25.667969 533.132812 26.183594 533.554688 C 26.699219 533.976562 27.265625 534.316406 27.882812 534.574219 C 28.5 534.828125 29.144531 534.988281 29.808594 535.054688 C 30.472656 535.121094 31.132812 535.089844 31.789062 534.960938 C 32.441406 534.828125 33.066406 534.609375 33.65625 534.292969 C 34.246094 533.980469 34.777344 533.585938 35.25 533.117188 L 183.738281 384.628906 C 184.710938 383.65625 185.550781 382.578125 186.253906 381.394531 C 186.960938 380.210938 187.507812 378.957031 187.898438 377.636719 C 188.289062 376.316406 188.511719 374.96875 188.566406 373.589844 C 188.621094 372.214844 188.503906 370.851562 188.21875 369.507812 L 188.101562 368.933594 C 186.398438 360.835938 179.945312 338.929688 156.585938 302.285156 C 156.40625 302.003906 156.210938 301.730469 156 301.472656 C 155.789062 301.210938 155.566406 300.964844 155.328125 300.726562 C 155.089844 300.492188 154.839844 300.269531 154.578125 300.0625 C 154.3125 299.855469 154.039062 299.664062 153.757812 299.488281 C 153.472656 299.3125 153.179688 299.148438 152.875 299.007812 C 152.574219 298.863281 152.265625 298.734375 151.949219 298.625 C 151.632812 298.515625 151.3125 298.425781 150.984375 298.351562 C 150.65625 298.277344 150.328125 298.222656 149.996094 298.1875 C 149.664062 298.152344 149.328125 298.132812 148.996094 298.132812 C 148.660156 298.132812 148.324219 298.152344 147.992188 298.191406 C 147.660156 298.230469 147.332031 298.285156 147.003906 298.363281 C 146.679688 298.4375 146.359375 298.53125 146.042969 298.640625 C 145.726562 298.75 145.417969 298.878906 145.117188 299.023438 C 144.8125 299.171875 144.523438 299.332031 144.238281 299.511719 C 143.957031 299.6875 143.683594 299.882812 143.421875 300.089844 C 143.160156 300.296875 142.910156 300.519531 142.671875 300.757812 L 29.609375 413.824219 C 28.671875 414.757812 27.839844 415.777344 27.101562 416.875 C 26.367188 417.972656 25.746094 419.132812 25.242188 420.355469 C 24.734375 421.578125 24.351562 422.835938 24.09375 424.132812 C 23.835938 425.429688 23.707031 426.742188 23.707031 428.0625 Z M 23.707031 428.0625 "/></g></g></g></g></svg>