<svg xmlns="http://www.w3.org/2000/svg" xmlns:xlink="http://www.w3.org/1999/xlink" width="1080" zoomAndPan="magnify" viewBox="0 0 810 1012.49997" height="1350" preserveAspectRatio="xMidYMid meet" version="1.2"><defs><clipPath id="6f9fbbae06"><path d="M 0.199219 0 L 809.800781 0 L 809.800781 1012 L 0.199219 1012 Z M 0.199219 0 "/></clipPath><clipPath id="0ed00073dc"><rect x="0" width="374" y="0" height="464"/></clipPath></defs><g id="85b59e5fae"><g clip-rule="nonzero" clip-path="url(#6f9fbbae06)"><path style=" stroke:none;fill-rule:nonzero;fill:#ffffff;fill-opacity:1;" d="M 0.199219 0 L 809.800781 0 L 809.800781 1012 L 0.199219 1012 Z M 0.199219 0 "/><path style=" stroke:none;fill-rule:nonzero;fill:#ffffff;fill-opacity:1;" d="M 0.199219 0 L 809.800781 0 L 809.800781 1012 L 0.199219 1012 Z M 0.199219 0 "/></g><g transform="matrix(1,0,0,1,232,274)"><g clip-path="url(#0ed00073dc)"><g style="fill:#1a1617;fill-opacity:1;"><g transform="translate(29.315097, 204.456544)"><path style="stroke:none" d="M 2.375 0 L 2.375 -151.203125 L 74.3125 -151.203125 C 86.84375 -151.203125 97.75 -148.898438 107.03125 -144.296875 C 116.320312 -139.691406 123.882812 -133.535156 129.71875 -125.828125 C 135.550781 -118.117188 139.546875 -109.691406 141.703125 -100.546875 C 143.867188 -91.410156 144.191406 -82.304688 142.671875 -73.234375 C 141.160156 -64.160156 137.703125 -55.769531 132.296875 -48.0625 C 126.898438 -40.351562 119.484375 -34.195312 110.046875 -29.59375 C 100.617188 -24.988281 89.066406 -22.6875 75.390625 -22.6875 L 62.421875 -22.6875 L 62.421875 -75.171875 L 75.390625 -75.171875 C 79.566406 -75.171875 82.660156 -76.25 84.671875 -78.40625 C 86.691406 -80.570312 87.703125 -83.09375 87.703125 -85.96875 C 87.703125 -88.851562 86.691406 -91.375 84.671875 -93.53125 C 82.660156 -95.695312 79.566406 -96.78125 75.390625 -96.78125 L 58.546875 -96.78125 L 58.546875 0 Z M 2.375 0 "/></g></g><g style="fill:#1a1617;fill-opacity:1;"><g transform="translate(201.267411, 204.456544)"><path style="stroke:none" d="M 2.375 -151.203125 L 58.546875 -151.203125 L 58.546875 -54.65625 L 113.84375 -54.65625 L 113.84375 0 L 2.375 0 Z M 2.375 -151.203125 "/></g></g><g style="fill:#1a1617;fill-opacity:1;"><g transform="translate(2.531048, 408.602637)"><path style="stroke:none" d="M 126.578125 -151.203125 L 186.859375 0 L 126.578125 0 L 92.671875 -93.96875 L 76.46875 -50.328125 L 104.328125 -50.328125 L 122.484375 0 L -0.4375 0 L 58.75 -151.203125 Z M 126.578125 -151.203125 "/></g></g><g style="fill:#1a1617;fill-opacity:1;"><g transform="translate(216.175092, 408.602637)"><path style="stroke:none" d="M 2.15625 -151.203125 L 125.5 -151.203125 L 125.5 -99.15625 L 58.328125 -99.15625 L 58.328125 -95.265625 L 125.5 -95.265625 L 125.5 -45.796875 L 58.328125 -45.796875 L 58.328125 0 L 2.15625 0 Z M 2.15625 -151.203125 "/></g></g></g></g></g></svg>