<svg xmlns="http://www.w3.org/2000/svg" xmlns:xlink="http://www.w3.org/1999/xlink" width="1080" zoomAndPan="magnify" viewBox="0 0 810 1012.49997" height="1350" preserveAspectRatio="xMidYMid meet" version="1.2"><defs><clipPath id="de78c71019"><path d="M 0.199219 0 L 809.800781 0 L 809.800781 1012 L 0.199219 1012 Z M 0.199219 0 "/></clipPath><clipPath id="258d328f90"><rect x="0" width="168" y="0" height="358"/></clipPath><clipPath id="91a7bf72f7"><rect x="0" width="235" y="0" height="398"/></clipPath><clipPath id="70ec332df8"><rect x="0" width="168" y="0" height="358"/></clipPath><clipPath id="49f11a229a"><rect x="0" width="235" y="0" height="398"/></clipPath><clipPath id="916dad6875"><rect x="0" width="427" y="0" height="912"/></clipPath><clipPath id="abe8da7a87"><path d="M 218 0 L 809.800781 0 L 809.800781 1012 L 218 1012 Z M 218 0 "/></clipPath><clipPath id="04a1a0464b"><rect x="0" width="592" y="0" height="1012"/></clipPath></defs><g id="8057731ba3"><g clip-rule="nonzero" clip-path="url(#de78c71019)"><path style=" stroke:none;fill-rule:nonzero;fill:#ffffff;fill-opacity:1;" d="M 0.199219 0 L 809.800781 0 L 809.800781 1012 L 0.199219 1012 Z M 0.199219 0 "/><path style=" stroke:none;fill-rule:nonzero;fill:#ffffff;fill-opacity:1;" d="M 0.199219 0 L 809.800781 0 L 809.800781 1012 L 0.199219 1012 Z M 0.199219 0 "/></g><g transform="matrix(1,0,0,1,34,18)"><g clip-path="url(#258d328f90)"><g style="fill:#ffffff;fill-opacity:1;"><g transform="translate(7.405246, 250.475098)"><path style="stroke:none" d="M 140.40625 -63.21875 C 144.976562 -63.21875 148.445312 -62.28125 150.8125 -60.40625 C 153.1875 -58.53125 154.375 -55.875 154.375 -52.4375 C 154.375 -50.96875 154.128906 -49.335938 153.640625 -47.546875 L 145.5625 -18.875 C 143.4375 -11.84375 140.453125 -6.9375 136.609375 -4.15625 C 132.773438 -1.382812 127.097656 0 119.578125 0 L 4.40625 0 C 0.976562 0 -1.671875 -0.570312 -3.546875 -1.71875 C -5.429688 -2.863281 -6.375 -4.414062 -6.375 -6.375 C -6.375 -7.351562 -6.128906 -8.414062 -5.640625 -9.5625 C -5.148438 -10.863281 -4.332031 -11.960938 -3.1875 -12.859375 C -2.039062 -13.765625 -0.816406 -14.625 0.484375 -15.4375 C 3.097656 -17.070312 5.222656 -18.742188 6.859375 -20.453125 C 8.492188 -22.171875 9.882812 -24.992188 11.03125 -28.921875 L 40.921875 -134.53125 C 41.578125 -136.65625 41.90625 -138.695312 41.90625 -140.65625 C 41.90625 -142.457031 41.617188 -143.96875 41.046875 -145.1875 C 40.472656 -146.414062 39.695312 -147.847656 38.71875 -149.484375 C 37.25 -151.609375 36.515625 -153.320312 36.515625 -154.625 C 36.515625 -155.113281 36.675781 -156.007812 37 -157.3125 C 37.65625 -159.4375 39.082031 -160.945312 41.28125 -161.84375 C 43.488281 -162.75 46.878906 -163.203125 51.453125 -163.203125 L 109.046875 -163.203125 C 112.472656 -163.203125 115.125 -162.671875 117 -161.609375 C 118.882812 -160.546875 119.828125 -159.035156 119.828125 -157.078125 C 119.828125 -156.253906 119.582031 -155.191406 119.09375 -153.890625 C 118.601562 -152.742188 117.90625 -151.722656 117 -150.828125 C 116.101562 -149.929688 115.285156 -149.273438 114.546875 -148.859375 C 113.816406 -148.453125 113.289062 -148.085938 112.96875 -147.765625 C 110.351562 -146.296875 108.226562 -144.660156 106.59375 -142.859375 C 104.957031 -141.066406 103.566406 -138.289062 102.421875 -134.53125 L 70.8125 -23.53125 L 86.015625 -23.53125 C 89.765625 -23.53125 92.988281 -24.179688 95.6875 -25.484375 C 98.382812 -26.785156 101.203125 -29.238281 104.140625 -32.84375 L 121.046875 -52.9375 C 124.148438 -56.53125 127.128906 -59.140625 129.984375 -60.765625 C 132.847656 -62.398438 136.320312 -63.21875 140.40625 -63.21875 Z M 140.40625 -63.21875 "/></g></g></g></g><g transform="matrix(1,0,0,1,114,0)"><g clip-path="url(#91a7bf72f7)"><g style="fill:#ffffff;fill-opacity:1;"><g transform="translate(20.187799, 270.240463)"><path style="stroke:none" d="M 174.640625 -33.734375 C 173.878906 -31.253906 173.5 -28.773438 173.5 -26.296875 C 173.5 -24.203125 173.785156 -22.4375 174.359375 -21 C 174.929688 -19.570312 175.550781 -18.429688 176.21875 -17.578125 C 176.882812 -16.722656 177.3125 -16.101562 177.5 -15.71875 C 179.40625 -13.8125 180.359375 -11.90625 180.359375 -10 C 180.359375 -9.625 180.164062 -8.671875 179.78125 -7.140625 C 179.019531 -4.472656 177.351562 -2.613281 174.78125 -1.5625 C 172.207031 -0.519531 168.253906 0 162.921875 0 L 95.1875 0 C 91.175781 0 88.078125 -0.664062 85.890625 -2 C 83.703125 -3.332031 82.609375 -5.144531 82.609375 -7.4375 C 82.609375 -8.570312 82.894531 -9.804688 83.46875 -11.140625 C 84.03125 -12.671875 84.835938 -13.863281 85.890625 -14.71875 C 86.941406 -15.570312 88.421875 -16.570312 90.328125 -17.71875 C 93.367188 -19.4375 95.84375 -21.34375 97.75 -23.4375 C 99.65625 -25.53125 101.273438 -28.960938 102.609375 -33.734375 L 110.046875 -58.3125 L 65.453125 -58.3125 L 57.734375 -42.015625 C 54.492188 -34.960938 52.875 -29.4375 52.875 -25.4375 C 52.875 -23.15625 53.253906 -21.296875 54.015625 -19.859375 C 54.785156 -18.429688 55.929688 -16.957031 57.453125 -15.4375 C 58.785156 -13.90625 59.6875 -12.613281 60.15625 -11.5625 C 60.632812 -10.519531 60.6875 -9.144531 60.3125 -7.4375 C 59.550781 -4.570312 57.976562 -2.613281 55.59375 -1.5625 C 53.207031 -0.519531 49.441406 0 44.296875 0 L 1.71875 0 C -2.664062 0 -6 -0.804688 -8.28125 -2.421875 C -10.570312 -4.046875 -11.71875 -6.191406 -11.71875 -8.859375 C -11.71875 -11.910156 -10.617188 -14.335938 -8.421875 -16.140625 C -6.234375 -17.953125 -2.953125 -19.910156 1.421875 -22.015625 C 7.140625 -24.867188 11.710938 -27.675781 15.140625 -30.4375 C 18.578125 -33.195312 21.535156 -37.054688 24.015625 -42.015625 L 74.890625 -147.484375 C 82.703125 -163.867188 91.894531 -175.726562 102.46875 -183.0625 C 113.039062 -190.40625 127 -194.078125 144.34375 -194.078125 C 163.78125 -194.078125 178.832031 -190.125 189.5 -182.21875 C 200.175781 -174.3125 205.515625 -163.304688 205.515625 -149.203125 C 205.515625 -143.296875 204.5625 -137.195312 202.65625 -130.90625 Z M 118.625 -86.890625 L 133.765625 -137.203125 C 134.523438 -139.484375 134.90625 -141.863281 134.90625 -144.34375 C 134.90625 -147.96875 133.90625 -150.679688 131.90625 -152.484375 C 129.90625 -154.296875 127.097656 -155.203125 123.484375 -155.203125 C 118.910156 -155.203125 115.003906 -153.867188 111.765625 -151.203125 C 108.523438 -148.535156 105.285156 -143.769531 102.046875 -136.90625 L 78.609375 -86.890625 Z M 118.625 -86.890625 "/></g></g></g></g><g transform="matrix(1,0,0,1,34,18)"><g clip-path="url(#70ec332df8)"><g style="fill:#ffffff;fill-opacity:1;"><g transform="translate(7.405246, 250.475098)"><path style="stroke:none" d="M 140.40625 -63.21875 C 144.976562 -63.21875 148.445312 -62.28125 150.8125 -60.40625 C 153.1875 -58.53125 154.375 -55.875 154.375 -52.4375 C 154.375 -50.96875 154.128906 -49.335938 153.640625 -47.546875 L 145.5625 -18.875 C 143.4375 -11.84375 140.453125 -6.9375 136.609375 -4.15625 C 132.773438 -1.382812 127.097656 0 119.578125 0 L 4.40625 0 C 0.976562 0 -1.671875 -0.570312 -3.546875 -1.71875 C -5.429688 -2.863281 -6.375 -4.414062 -6.375 -6.375 C -6.375 -7.351562 -6.128906 -8.414062 -5.640625 -9.5625 C -5.148438 -10.863281 -4.332031 -11.960938 -3.1875 -12.859375 C -2.039062 -13.765625 -0.816406 -14.625 0.484375 -15.4375 C 3.097656 -17.070312 5.222656 -18.742188 6.859375 -20.453125 C 8.492188 -22.171875 9.882812 -24.992188 11.03125 -28.921875 L 40.921875 -134.53125 C 41.578125 -136.65625 41.90625 -138.695312 41.90625 -140.65625 C 41.90625 -142.457031 41.617188 -143.96875 41.046875 -145.1875 C 40.472656 -146.414062 39.695312 -147.847656 38.71875 -149.484375 C 37.25 -151.609375 36.515625 -153.320312 36.515625 -154.625 C 36.515625 -155.113281 36.675781 -156.007812 37 -157.3125 C 37.65625 -159.4375 39.082031 -160.945312 41.28125 -161.84375 C 43.488281 -162.75 46.878906 -163.203125 51.453125 -163.203125 L 109.046875 -163.203125 C 112.472656 -163.203125 115.125 -162.671875 117 -161.609375 C 118.882812 -160.546875 119.828125 -159.035156 119.828125 -157.078125 C 119.828125 -156.253906 119.582031 -155.191406 119.09375 -153.890625 C 118.601562 -152.742188 117.90625 -151.722656 117 -150.828125 C 116.101562 -149.929688 115.285156 -149.273438 114.546875 -148.859375 C 113.816406 -148.453125 113.289062 -148.085938 112.96875 -147.765625 C 110.351562 -146.296875 108.226562 -144.660156 106.59375 -142.859375 C 104.957031 -141.066406 103.566406 -138.289062 102.421875 -134.53125 L 70.8125 -23.53125 L 86.015625 -23.53125 C 89.765625 -23.53125 92.988281 -24.179688 95.6875 -25.484375 C 98.382812 -26.785156 101.203125 -29.238281 104.140625 -32.84375 L 121.046875 -52.9375 C 124.148438 -56.53125 127.128906 -59.140625 129.984375 -60.765625 C 132.847656 -62.398438 136.320312 -63.21875 140.40625 -63.21875 Z M 140.40625 -63.21875 "/></g></g></g></g><g transform="matrix(1,0,0,1,114,0)"><g clip-path="url(#49f11a229a)"><g style="fill:#ffffff;fill-opacity:1;"><g transform="translate(20.187799, 270.240463)"><path style="stroke:none" d="M 174.640625 -33.734375 C 173.878906 -31.253906 173.5 -28.773438 173.5 -26.296875 C 173.5 -24.203125 173.785156 -22.4375 174.359375 -21 C 174.929688 -19.570312 175.550781 -18.429688 176.21875 -17.578125 C 176.882812 -16.722656 177.3125 -16.101562 177.5 -15.71875 C 179.40625 -13.8125 180.359375 -11.90625 180.359375 -10 C 180.359375 -9.625 180.164062 -8.671875 179.78125 -7.140625 C 179.019531 -4.472656 177.351562 -2.613281 174.78125 -1.5625 C 172.207031 -0.519531 168.253906 0 162.921875 0 L 95.1875 0 C 91.175781 0 88.078125 -0.664062 85.890625 -2 C 83.703125 -3.332031 82.609375 -5.144531 82.609375 -7.4375 C 82.609375 -8.570312 82.894531 -9.804688 83.46875 -11.140625 C 84.03125 -12.671875 84.835938 -13.863281 85.890625 -14.71875 C 86.941406 -15.570312 88.421875 -16.570312 90.328125 -17.71875 C 93.367188 -19.4375 95.84375 -21.34375 97.75 -23.4375 C 99.65625 -25.53125 101.273438 -28.960938 102.609375 -33.734375 L 110.046875 -58.3125 L 65.453125 -58.3125 L 57.734375 -42.015625 C 54.492188 -34.960938 52.875 -29.4375 52.875 -25.4375 C 52.875 -23.15625 53.253906 -21.296875 54.015625 -19.859375 C 54.785156 -18.429688 55.929688 -16.957031 57.453125 -15.4375 C 58.785156 -13.90625 59.6875 -12.613281 60.15625 -11.5625 C 60.632812 -10.519531 60.6875 -9.144531 60.3125 -7.4375 C 59.550781 -4.570312 57.976562 -2.613281 55.59375 -1.5625 C 53.207031 -0.519531 49.441406 0 44.296875 0 L 1.71875 0 C -2.664062 0 -6 -0.804688 -8.28125 -2.421875 C -10.570312 -4.046875 -11.71875 -6.191406 -11.71875 -8.859375 C -11.71875 -11.910156 -10.617188 -14.335938 -8.421875 -16.140625 C -6.234375 -17.953125 -2.953125 -19.910156 1.421875 -22.015625 C 7.140625 -24.867188 11.710938 -27.675781 15.140625 -30.4375 C 18.578125 -33.195312 21.535156 -37.054688 24.015625 -42.015625 L 74.890625 -147.484375 C 82.703125 -163.867188 91.894531 -175.726562 102.46875 -183.0625 C 113.039062 -190.40625 127 -194.078125 144.34375 -194.078125 C 163.78125 -194.078125 178.832031 -190.125 189.5 -182.21875 C 200.175781 -174.3125 205.515625 -163.304688 205.515625 -149.203125 C 205.515625 -143.296875 204.5625 -137.195312 202.65625 -130.90625 Z M 118.625 -86.890625 L 133.765625 -137.203125 C 134.523438 -139.484375 134.90625 -141.863281 134.90625 -144.34375 C 134.90625 -147.96875 133.90625 -150.679688 131.90625 -152.484375 C 129.90625 -154.296875 127.097656 -155.203125 123.484375 -155.203125 C 118.910156 -155.203125 115.003906 -153.867188 111.765625 -151.203125 C 108.523438 -148.535156 105.285156 -143.769531 102.046875 -136.90625 L 78.609375 -86.890625 Z M 118.625 -86.890625 "/></g></g></g></g><g transform="matrix(1,0,0,1,14,56)"><g clip-path="url(#916dad6875)"><g style="fill:#1a1617;fill-opacity:1;"><g transform="translate(18.345483, 638.259218)"><path style="stroke:none" d="M 357.90625 -161.15625 C 369.5625 -161.15625 378.40625 -158.757812 384.4375 -153.96875 C 390.476562 -149.175781 393.5 -142.410156 393.5 -133.671875 C 393.5 -129.921875 392.875 -125.753906 391.625 -121.171875 L 371.015625 -48.09375 C 365.597656 -30.1875 358 -17.691406 348.21875 -10.609375 C 338.4375 -3.535156 323.96875 0 304.8125 0 L 11.25 0 C 2.5 0 -4.265625 -1.457031 -9.046875 -4.375 C -13.835938 -7.289062 -16.234375 -11.242188 -16.234375 -16.234375 C -16.234375 -18.734375 -15.609375 -21.441406 -14.359375 -24.359375 C -13.117188 -27.691406 -11.039062 -30.503906 -8.125 -32.796875 C -5.207031 -35.085938 -2.082031 -37.269531 1.25 -39.34375 C 7.914062 -43.507812 13.328125 -47.78125 17.484375 -52.15625 C 21.648438 -56.53125 25.191406 -63.710938 28.109375 -73.703125 L 104.3125 -342.90625 C 105.976562 -348.320312 106.8125 -353.53125 106.8125 -358.53125 C 106.8125 -363.101562 106.082031 -366.953125 104.625 -370.078125 C 103.164062 -373.203125 101.1875 -376.847656 98.6875 -381.015625 C 94.9375 -386.421875 93.0625 -390.789062 93.0625 -394.125 C 93.0625 -395.375 93.476562 -397.664062 94.3125 -401 C 95.976562 -406.414062 99.617188 -410.265625 105.234375 -412.546875 C 110.859375 -414.835938 119.503906 -415.984375 131.171875 -415.984375 L 277.953125 -415.984375 C 286.691406 -415.984375 293.457031 -414.628906 298.25 -411.921875 C 303.039062 -409.222656 305.4375 -405.375 305.4375 -400.375 C 305.4375 -398.289062 304.8125 -395.582031 303.5625 -392.25 C 302.3125 -389.332031 300.539062 -386.726562 298.25 -384.4375 C 295.957031 -382.15625 293.875 -380.492188 292 -379.453125 C 290.125 -378.410156 288.769531 -377.472656 287.9375 -376.640625 C 281.28125 -372.890625 275.867188 -368.722656 271.703125 -364.140625 C 267.535156 -359.566406 264 -352.488281 261.09375 -342.90625 L 180.515625 -59.96875 L 219.234375 -59.96875 C 228.816406 -59.96875 237.039062 -61.628906 243.90625 -64.953125 C 250.78125 -68.285156 257.960938 -74.535156 265.453125 -83.703125 L 308.5625 -134.921875 C 316.46875 -144.078125 324.0625 -150.738281 331.34375 -154.90625 C 338.632812 -159.070312 347.488281 -161.15625 357.90625 -161.15625 Z M 357.90625 -161.15625 "/></g></g></g></g><g clip-rule="nonzero" clip-path="url(#abe8da7a87)"><g transform="matrix(1,0,0,1,218,0)"><g clip-path="url(#04a1a0464b)"><g style="fill:#1a1617;fill-opacity:1;"><g transform="translate(50.838903, 698.758435)"><path style="stroke:none" d="M 445.125 -85.96875 C 443.1875 -79.65625 442.21875 -73.34375 442.21875 -67.03125 C 442.21875 -61.6875 442.945312 -57.191406 444.40625 -53.546875 C 445.863281 -49.898438 447.441406 -46.984375 449.140625 -44.796875 C 450.835938 -42.617188 451.929688 -41.039062 452.421875 -40.0625 C 457.273438 -35.207031 459.703125 -30.351562 459.703125 -25.5 C 459.703125 -24.53125 459.21875 -22.101562 458.25 -18.21875 C 456.300781 -11.414062 452.046875 -6.675781 445.484375 -4 C 438.929688 -1.332031 428.859375 0 415.265625 0 L 242.59375 0 C 232.394531 0 224.503906 -1.695312 218.921875 -5.09375 C 213.335938 -8.5 210.546875 -13.113281 210.546875 -18.9375 C 210.546875 -21.851562 211.273438 -25.007812 212.734375 -28.40625 C 214.191406 -32.289062 216.253906 -35.328125 218.921875 -37.515625 C 221.597656 -39.703125 225.363281 -42.253906 230.21875 -45.171875 C 237.988281 -49.535156 244.300781 -54.390625 249.15625 -59.734375 C 254.007812 -65.078125 258.140625 -73.820312 261.546875 -85.96875 L 280.484375 -148.625 L 166.828125 -148.625 L 147.15625 -107.09375 C 138.90625 -89.125 134.78125 -75.039062 134.78125 -64.84375 C 134.78125 -59.007812 135.75 -54.269531 137.6875 -50.625 C 139.632812 -46.988281 142.550781 -43.226562 146.4375 -39.34375 C 149.832031 -35.457031 152.132812 -32.175781 153.34375 -29.5 C 154.5625 -26.832031 154.6875 -23.3125 153.71875 -18.9375 C 151.78125 -11.65625 147.773438 -6.675781 141.703125 -4 C 135.628906 -1.332031 126.035156 0 112.921875 0 L 4.375 0 C -6.800781 0 -15.300781 -2.0625 -21.125 -6.1875 C -26.957031 -10.320312 -29.875 -15.785156 -29.875 -22.578125 C -29.875 -30.347656 -27.078125 -36.539062 -21.484375 -41.15625 C -15.898438 -45.769531 -7.523438 -50.75 3.640625 -56.09375 C 18.210938 -63.382812 29.867188 -70.550781 38.609375 -77.59375 C 47.347656 -84.632812 54.878906 -94.46875 61.203125 -107.09375 L 190.875 -375.921875 C 210.789062 -417.691406 234.222656 -447.925781 261.171875 -466.625 C 288.128906 -485.320312 323.707031 -494.671875 367.90625 -494.671875 C 417.445312 -494.671875 455.816406 -484.59375 483.015625 -464.4375 C 510.210938 -444.28125 523.8125 -416.234375 523.8125 -380.296875 C 523.8125 -365.234375 521.382812 -349.691406 516.53125 -333.671875 Z M 302.34375 -221.46875 L 340.953125 -349.6875 C 342.890625 -355.519531 343.859375 -361.59375 343.859375 -367.90625 C 343.859375 -377.132812 341.304688 -384.054688 336.203125 -388.671875 C 331.109375 -393.285156 323.945312 -395.59375 314.71875 -395.59375 C 303.0625 -395.59375 293.101562 -392.191406 284.84375 -385.390625 C 276.59375 -378.585938 268.335938 -366.445312 260.078125 -348.96875 L 200.34375 -221.46875 Z M 302.34375 -221.46875 "/></g></g></g></g></g></g></svg>